<svg width="100%" viewBox="0 0 560 480" role="img">
<title>OlivIA</title>
<desc>Agente de inteligencia do Olive Garden</desc>
<circle cx="280" cy="200" r="110" fill="#5C3A22" opacity="0.15"/>
<circle cx="280" cy="200" r="85" fill="#5C3A22" opacity="0.12"/>
<circle cx="155" cy="130" r="2.5" fill="#8B9A2E" opacity="0.5"/>
<circle cx="405" cy="110" r="2.5" fill="#8B9A2E" opacity="0.5"/>
<line x1="155" y1="130" x2="210" y2="165" stroke="#8B9A2E" stroke-width="0.7" opacity="0.2"/>
<line x1="405" y1="110" x2="350" y2="165" stroke="#8B9A2E" stroke-width="0.7" opacity="0.2"/>
<rect x="118" y="100" width="78" height="36" rx="5" fill="none" stroke="#8B9A2E" stroke-width="0.8" opacity="0.3"/>
<text x="124" y="116" font-family="Courier New" font-size="8" fill="#8B9A2E" opacity="0.45">SENTIMENT</text>
<text x="124" y="130" font-family="Georgia" font-size="12" fill="#8B9A2E" opacity="0.6" font-weight="bold">94.1%</text>
<rect x="364" y="85" width="78" height="36" rx="5" fill="none" stroke="#8B9A2E" stroke-width="0.8" opacity="0.3"/>
<text x="370" y="101" font-family="Courier New" font-size="8" fill="#8B9A2E" opacity="0.45">INDEX</text>
<text x="370" y="115" font-family="Georgia" font-size="12" fill="#F5F0E8" opacity="0.45" font-weight="bold">78/100</text>
<path d="M185 340 Q195 395 280 408 Q365 395 375 340 Q385 372 385 400 Q348 435 280 440 Q212 435 175 400 Q175 372 185 340Z" fill="#2E1A0E"/>
<path d="M235 325 Q280 312 325 325 L328 346 Q280 362 232 346Z" fill="#4A2C14"/>
<path d="M182 295 Q175 338 178 372 Q190 390 205 385 Q192 355 194 308Z" fill="#2E1A0E"/>
<path d="M378 295 Q385 338 382 372 Q370 390 355 385 Q368 355 366 308Z" fill="#2E1A0E"/>
<path d="M192 225 Q198 158 280 142 Q362 158 368 225 Q372 272 367 302 Q340 330 280 336 Q220 330 193 302 Q188 272 192 225Z" fill="#F0C896"/>
<path d="M192 225 Q198 165 280 150 Q362 165 368 225 Q355 205 280 200 Q205 205 192 225Z" fill="#D4986A" opacity="0.3"/>
<path d="M190 222 Q183 265 186 292 Q196 292 199 287 Q192 262 194 224Z" fill="#D4986A" opacity="0.35"/>
<path d="M370 222 Q377 265 374 292 Q364 292 361 287 Q368 262 366 224Z" fill="#D4986A" opacity="0.35"/>
<path d="M190 222 Q200 148 280 135 Q360 148 370 222 Q358 183 280 178 Q202 183 190 222Z" fill="#2A1508"/>
<path d="M187 230 Q180 274 184 302 Q194 312 202 306 Q189 276 191 234Z" fill="#2A1508"/>
<path d="M373 230 Q380 274 376 302 Q366 312 358 306 Q371 276 369 234Z" fill="#2A1508"/>
<ellipse cx="280" cy="128" rx="62" ry="17" fill="#2A1508"/>
<path d="M218 136 Q230 105 280 98 Q330 105 342 136 Q312 120 280 117 Q248 120 218 136Z" fill="#3D2010"/>
<path d="M188 195 Q179 216 177 238 Q184 230 194 226Z" fill="#2A1508"/>
<path d="M372 195 Q381 216 383 238 Q376 230 366 226Z" fill="#2A1508"/>
<path d="M248 150 Q264 138 276 141" stroke="#1A0808" stroke-width="2.2" fill="none" stroke-linecap="round"/>
<path d="M284 141 Q296 138 312 150" stroke="#1A0808" stroke-width="2.2" fill="none" stroke-linecap="round"/>
<ellipse cx="256" cy="186" rx="13" ry="14" fill="white"/>
<ellipse cx="304" cy="186" rx="13" ry="14" fill="white"/>
<ellipse cx="257" cy="187" rx="10" ry="11" fill="#8B5A30"/>
<ellipse cx="305" cy="187" rx="10" ry="11" fill="#8B5A30"/>
<ellipse cx="257" cy="187" rx="7" ry="8" fill="#1A0808"/>
<ellipse cx="305" cy="187" rx="7" ry="8" fill="#1A0808"/>
<ellipse cx="254" cy="184" rx="3" ry="3" fill="white" opacity="0.92"/>
<ellipse cx="302" cy="184" rx="3" ry="3" fill="white" opacity="0.92"/>
<ellipse cx="238" cy="218" rx="13" ry="8" fill="#E8956A" opacity="0.22"/>
<ellipse cx="322" cy="218" rx="13" ry="8" fill="#E8956A" opacity="0.22"/>
<ellipse cx="280" cy="213" rx="6" ry="5" fill="#C87848" opacity="0.3"/>
<path d="M262 233 Q280 247 298 233 Q291 253 280 255 Q269 253 262 233Z" fill="#C05840"/>
<path d="M262 233 Q280 243 298 233" stroke="#943820" stroke-width="1.3" fill="none"/>
<circle cx="238" cy="136" r="7" fill="#8B9A2E" opacity="0.9"/>
<circle cx="254" cy="122" r="5.5" fill="#6B7A1E" opacity="0.7"/>
<ellipse cx="239" cy="136" rx="5.5" ry="10" fill="#8B9A2E" opacity="0.6" transform="rotate(-20 239 136)"/>
<ellipse cx="254" cy="122" rx="4.5" ry="8" fill="#8B9A2E" opacity="0.5" transform="rotate(-35 254 122)"/>
<circle cx="322" cy="136" r="7" fill="#8B9A2E" opacity="0.9"/>
<circle cx="306" cy="122" r="5.5" fill="#6B7A1E" opacity="0.7"/>
<ellipse cx="321" cy="136" rx="5.5" ry="10" fill="#8B9A2E" opacity="0.6" transform="rotate(20 321 136)"/>
<ellipse cx="306" cy="122" rx="4.5" ry="8" fill="#8B9A2E" opacity="0.5" transform="rotate(35 306 122)"/>
</svg>
